<mxfile host="app.diagrams.net" agent="Mozilla/5.0 (Macintosh; Intel Mac OS X 10_15_7) AppleWebKit/605.1.15 (KHTML, like Gecko) Version/17.3.1 Safari/605.1.15" version="28.0.3">
  <diagram name="Page-1" id="Vfzv97zO3W3kYHnsrSTO">
    <mxGraphModel dx="1892" dy="904" grid="1" gridSize="10" guides="1" tooltips="1" connect="1" arrows="1" fold="1" page="1" pageScale="1" pageWidth="827" pageHeight="1169" math="0" shadow="0">
      <root>
        <mxCell id="0" />
        <mxCell id="1" parent="0" />
        <mxCell id="7FHQR7fTj9gDsQC4ISvj-1" value="" style="ellipse;fillColor=#F08705;opacity=60;strokeColor=none;html=1;fontColor=#FFFFFF;" parent="1" vertex="1">
          <mxGeometry x="280" y="301.5" width="500" height="500" as="geometry" />
        </mxCell>
        <mxCell id="7FHQR7fTj9gDsQC4ISvj-2" value="" style="ellipse;fillColor=#12AAB5;opacity=60;strokeColor=none;html=1;fontColor=#FFFFFF;rotation=0;" parent="1" vertex="1">
          <mxGeometry x="185.5" y="20" width="500" height="500" as="geometry" />
        </mxCell>
        <mxCell id="7FHQR7fTj9gDsQC4ISvj-3" value="" style="ellipse;fillColor=#e85642;opacity=60;strokeColor=none;html=1;fontColor=#FFFFFF;rotation=0;" parent="1" vertex="1">
          <mxGeometry x="520" y="20" width="500" height="500" as="geometry" />
        </mxCell>
        <mxCell id="7FHQR7fTj9gDsQC4ISvj-4" value="&lt;font style=&quot;font-size: 16px;&quot; face=&quot;Helvetica&quot;&gt;&lt;br&gt;&lt;div&gt;EDELWEISS-0 (&lt;span style=&quot;text-align: start; white-space: normal;&quot;&gt;Al&lt;/span&gt;&lt;span style=&quot;text-align: start; white-space: normal;&quot;&gt;&lt;sub&gt;2&lt;/sub&gt;&lt;/span&gt;&lt;span style=&quot;text-align: start; white-space: normal;&quot;&gt;O&lt;/span&gt;&lt;span style=&quot;text-align: start; white-space: normal;&quot;&gt;&lt;sub&gt;3&lt;/sub&gt;&lt;/span&gt;)&lt;/div&gt;&lt;div&gt;MIBETA (&lt;span style=&quot;text-align: start; white-space: normal;&quot;&gt;TeO&lt;/span&gt;&lt;span style=&quot;text-align: start; white-space: normal;&quot;&gt;&lt;sub&gt;2&lt;/sub&gt;&lt;/span&gt;)&lt;/div&gt;CRESST-I (Al&lt;sub&gt;2&lt;/sub&gt;O&lt;sub&gt;3&lt;/sub&gt;)&lt;/font&gt;&lt;div&gt;&lt;font size=&quot;3&quot; face=&quot;Helvetica&quot;&gt;&lt;font&gt;TOKYO-DM (&lt;/font&gt;&lt;span style=&quot;text-align: start; white-space: normal;&quot;&gt;LiF, Na&lt;/span&gt;&lt;span style=&quot;text-align: start; white-space: normal;&quot;&gt;F&lt;/span&gt;)&lt;/font&gt;&lt;/div&gt;&lt;div&gt;&lt;font size=&quot;3&quot; face=&quot;Helvetica&quot;&gt;ORPHEUS (Sn)&lt;/font&gt;&lt;/div&gt;&lt;div&gt;&lt;font size=&quot;3&quot; face=&quot;Helvetica&quot;&gt;&lt;font&gt;ROSEBUD (&lt;/font&gt;&lt;span style=&quot;white-space: normal; text-align: start;&quot;&gt;Al&lt;/span&gt;&lt;span style=&quot;white-space: normal; text-align: start;&quot;&gt;&lt;sub&gt;2&lt;/sub&gt;&lt;/span&gt;&lt;span style=&quot;white-space: normal; text-align: start;&quot;&gt;O&lt;/span&gt;&lt;span style=&quot;white-space: normal; text-align: start;&quot;&gt;&lt;sub&gt;3&lt;/sub&gt;&lt;/span&gt;, Ge)&lt;/font&gt;&lt;/div&gt;&lt;div&gt;&lt;font size=&quot;3&quot; face=&quot;Helvetica&quot;&gt;SuperCDMS-CPD (Si)&lt;/font&gt;&lt;div&gt;&lt;font size=&quot;3&quot; face=&quot;Helvetica&quot;&gt;EDELWEISS-SubGeV (Ge)&lt;br&gt;&lt;/font&gt;&lt;div&gt;&lt;font style=&quot;font-size: 20px;&quot;&gt;&lt;br&gt;&lt;/font&gt;&lt;/div&gt;&lt;/div&gt;&lt;/div&gt;" style="text;align=center;verticalAlign=middle;html=1;" parent="1" vertex="1">
          <mxGeometry x="234.5" y="188.5" width="230" height="81.5" as="geometry" />
        </mxCell>
        <mxCell id="7FHQR7fTj9gDsQC4ISvj-5" value="&lt;font style=&quot;font-size: 16px;&quot;&gt;&lt;br&gt;&lt;/font&gt;&lt;div&gt;&lt;table&gt;&lt;tbody&gt;&lt;tr&gt;&lt;td&gt;&lt;font size=&quot;3&quot;&gt;(Semiconductors)&lt;br&gt;CoGeNT (Ge)&lt;br&gt;CDEX&amp;nbsp;(Ge)&lt;br&gt;DAMIC (Si)&lt;br&gt;SENSEI (Si)&lt;br&gt;TEXONO (Ge)&lt;br&gt;&lt;/font&gt;&lt;/td&gt;&lt;td&gt;&lt;font size=&quot;3&quot;&gt;&lt;br&gt;&lt;br&gt;&lt;/font&gt;&lt;/td&gt;&lt;td&gt;&lt;font size=&quot;3&quot;&gt;&lt;font&gt;&lt;br&gt;&lt;/font&gt;&lt;br&gt;(Superheated liquids)&lt;br&gt;SIMPLE (C&lt;sub&gt;2&lt;/sub&gt;CIF&lt;sub&gt;5&lt;/sub&gt;)&lt;br&gt;COUPP (CF&lt;sub&gt;3&lt;/sub&gt;I)&lt;br&gt;PICASSO (C&lt;sub&gt;4&lt;/sub&gt;F&lt;sub&gt;10&lt;/sub&gt;)&lt;br&gt;&lt;br&gt;(Gas)&lt;br&gt;NEWS-G (CH&lt;sub&gt;4&lt;/sub&gt;)&amp;nbsp;&lt;/font&gt;&lt;div&gt;&lt;br&gt;&lt;/div&gt;&lt;/td&gt;&lt;/tr&gt;&lt;/tbody&gt;&lt;/table&gt;&lt;br&gt;&lt;/div&gt;" style="text;align=center;verticalAlign=middle;html=1;fontSize=20;" parent="1" vertex="1">
          <mxGeometry x="740" y="180" width="190" height="70" as="geometry" />
        </mxCell>
        <mxCell id="7FHQR7fTj9gDsQC4ISvj-8" value="&lt;font style=&quot;font-size: 16px;&quot;&gt;&lt;span style=&quot;caret-color: rgb(0, 0, 0); color: rgb(0, 0, 0);&quot;&gt;(Super) CDMS (Ge,Si)&lt;/span&gt;&lt;br style=&quot;caret-color: rgb(0, 0, 0); color: rgb(0, 0, 0);&quot;&gt;&lt;span style=&quot;caret-color: rgb(0, 0, 0); color: rgb(0, 0, 0);&quot;&gt;EDELWEISS (Ge)&lt;/span&gt;&lt;/font&gt;&lt;div&gt;&lt;span style=&quot;caret-color: rgb(0, 0, 0); color: rgb(0, 0, 0);&quot;&gt;&lt;font size=&quot;3&quot;&gt;CDMSlite (Ge)&lt;/font&gt;&lt;/span&gt;&lt;/div&gt;" style="text;align=center;html=1;fontColor=#FFFFFF;fontSize=16;" parent="1" vertex="1">
          <mxGeometry x="580" y="230" width="40" height="40" as="geometry" />
        </mxCell>
        <mxCell id="7FHQR7fTj9gDsQC4ISvj-9" value="&lt;div&gt;&lt;font style=&quot;font-size: 16px;&quot;&gt;&lt;span style=&quot;caret-color: rgb(0, 0, 0); color: rgb(0, 0, 0);&quot;&gt;&lt;font style=&quot;caret-color: rgb(255, 255, 255); color: rgb(255, 255, 255);&quot;&gt;&lt;span style=&quot;caret-color: rgb(0, 0, 0); color: rgb(0, 0, 0);&quot;&gt;COSINUS (Nal)&lt;/span&gt;&lt;/font&gt;&lt;div style=&quot;caret-color: rgb(255, 255, 255); color: rgb(255, 255, 255);&quot;&gt;&lt;font size=&quot;3&quot;&gt;&lt;font color=&quot;#000000&quot;&gt;&lt;span style=&quot;caret-color: rgb(0, 0, 0);&quot;&gt;ROSEBUD (&lt;/span&gt;&lt;/font&gt;&lt;span style=&quot;caret-color: rgb(0, 0, 0); color: rgb(0, 0, 0);&quot;&gt;CaWO&lt;/span&gt;&lt;sub style=&quot;caret-color: rgb(0, 0, 0); color: rgb(0, 0, 0);&quot;&gt;4&lt;/sub&gt;&lt;span style=&quot;caret-color: rgb(0, 0, 0); color: rgb(0, 0, 0);&quot;&gt;)&lt;/span&gt;&lt;/font&gt;&lt;/div&gt;&lt;/span&gt;&lt;/font&gt;&lt;/div&gt;&lt;font style=&quot;font-size: 16px;&quot;&gt;&lt;span style=&quot;caret-color: rgb(0, 0, 0); color: rgb(0, 0, 0);&quot;&gt;CRESST-II/III (CaWO&lt;/span&gt;&lt;sub style=&quot;caret-color: rgb(0, 0, 0); color: rgb(0, 0, 0);&quot;&gt;4&lt;/sub&gt;&lt;span style=&quot;caret-color: rgb(0, 0, 0); color: rgb(0, 0, 0);&quot;&gt;,&amp;nbsp;&lt;font&gt;LiAlO&lt;sub&gt;2&lt;/sub&gt;&lt;/font&gt;&lt;/span&gt;&lt;sub style=&quot;caret-color: rgb(0, 0, 0); color: rgb(0, 0, 0);&quot;&gt;&amp;nbsp;&lt;/sub&gt;&lt;span style=&quot;caret-color: rgb(0, 0, 0); color: rgb(0, 0, 0);&quot;&gt;)&lt;/span&gt;&lt;br&gt;&lt;/font&gt;" style="text;align=center;html=1;fontColor=#FFFFFF;fontSize=16;" parent="1" vertex="1">
          <mxGeometry x="410" y="400" width="40" height="40" as="geometry" />
        </mxCell>
        <mxCell id="7FHQR7fTj9gDsQC4ISvj-10" value="&lt;font style=&quot;font-size: 16px;&quot;&gt;&lt;span style=&quot;caret-color: rgb(0, 0, 0); color: rgb(0, 0, 0);&quot;&gt;Xenon (Xe)&lt;/span&gt;&lt;br style=&quot;caret-color: rgb(0, 0, 0); color: rgb(0, 0, 0);&quot;&gt;&lt;span style=&quot;caret-color: rgb(0, 0, 0); color: rgb(0, 0, 0);&quot;&gt;LZ (Xe)&lt;/span&gt;&lt;br style=&quot;caret-color: rgb(0, 0, 0); color: rgb(0, 0, 0);&quot;&gt;&lt;span style=&quot;caret-color: rgb(0, 0, 0); color: rgb(0, 0, 0);&quot;&gt;Panda-X (Xe)&lt;/span&gt;&lt;br style=&quot;caret-color: rgb(0, 0, 0); color: rgb(0, 0, 0);&quot;&gt;&lt;span style=&quot;caret-color: rgb(0, 0, 0); color: rgb(0, 0, 0);&quot;&gt;DarkSide (Ar)&lt;/span&gt;&lt;/font&gt;" style="text;align=center;html=1;fontColor=#FFFFFF;fontSize=16;" parent="1" vertex="1">
          <mxGeometry x="670" y="400" width="40" height="40" as="geometry" />
        </mxCell>
        <mxCell id="7FHQR7fTj9gDsQC4ISvj-12" value="Phonon/Heat" style="text;strokeColor=none;align=center;fillColor=none;html=1;verticalAlign=middle;whiteSpace=wrap;rounded=0;fontSize=30;fontStyle=1" parent="1" vertex="1">
          <mxGeometry x="399.5" y="50" width="100" height="30" as="geometry" />
        </mxCell>
        <mxCell id="7FHQR7fTj9gDsQC4ISvj-13" value="Light" style="text;strokeColor=none;align=center;fillColor=none;html=1;verticalAlign=middle;whiteSpace=wrap;rounded=0;fontSize=30;fontStyle=1" parent="1" vertex="1">
          <mxGeometry x="299.5" y="540" width="100" height="30" as="geometry" />
        </mxCell>
        <mxCell id="7FHQR7fTj9gDsQC4ISvj-14" value="&lt;b&gt;Charge&lt;/b&gt;" style="text;strokeColor=none;align=center;fillColor=none;html=1;verticalAlign=middle;whiteSpace=wrap;rounded=0;fontSize=30;" parent="1" vertex="1">
          <mxGeometry x="720" y="50" width="100" height="30" as="geometry" />
        </mxCell>
        <mxCell id="7FHQR7fTj9gDsQC4ISvj-23" value="&lt;font style=&quot;font-size: 18px;&quot;&gt;&lt;br&gt;&lt;/font&gt;&lt;div&gt;&lt;font size=&quot;3&quot;&gt;&lt;br&gt;&lt;/font&gt;&lt;/div&gt;&lt;div&gt;&lt;font&gt;&lt;table&gt;&lt;tbody&gt;&lt;tr&gt;&lt;td&gt;&lt;font size=&quot;3&quot;&gt;DAMA/NaI (NaI)&amp;nbsp;&lt;br&gt;DAMA/LIBRA (Nal)&amp;nbsp;&lt;br&gt;ANAIS (Nal)&amp;nbsp;&lt;br&gt;&lt;b style=&quot;color: rgb(255, 0, 0);&quot;&gt;SABRE (Nal)&lt;/b&gt;&amp;nbsp;&lt;br&gt;COSINE (Nal)&lt;br&gt;PICOLON (NaI)&lt;br&gt;&lt;/font&gt;&lt;div&gt;&lt;div&gt;&lt;font size=&quot;3&quot;&gt;DM-Ice (NaI)&lt;/font&gt;&lt;/div&gt;&lt;div&gt;&lt;font size=&quot;3&quot;&gt;&lt;div&gt;&lt;font&gt;NAIAD (NaI)&lt;/font&gt;&lt;/div&gt;&lt;div&gt;&lt;font&gt;Saclay-NaI (NaI)&lt;/font&gt;&lt;/div&gt;&lt;div&gt;&lt;font&gt;UKDM-NaI (NaI)&lt;/font&gt;&lt;/div&gt;&lt;/font&gt;&lt;/div&gt;&lt;/div&gt;&lt;/td&gt;&lt;td&gt;&lt;div&gt;&lt;font size=&quot;3&quot;&gt;&lt;br&gt;&lt;/font&gt;&lt;/div&gt;&lt;div&gt;&lt;font size=&quot;3&quot;&gt;BPRS (NaI, CaF&lt;sub&gt;2&lt;/sub&gt;)&amp;nbsp;&lt;br&gt;KIMS (NaI, Csl)&lt;br&gt;XMASS (Xe)&lt;br&gt;&lt;/font&gt;&lt;/div&gt;&lt;div&gt;&lt;font size=&quot;3&quot;&gt;DAMA/LXe (Xe)&lt;/font&gt;&lt;/div&gt;&lt;div&gt;&lt;font size=&quot;3&quot;&gt;ZEPLIN-I (Xe)&lt;/font&gt;&lt;/div&gt;&lt;div&gt;&lt;font size=&quot;3&quot;&gt;DEAP-3600 (Ar)&lt;/font&gt;&lt;/div&gt;&lt;div&gt;&lt;font size=&quot;3&quot;&gt;&lt;font&gt;TOKYO-DM (&lt;/font&gt;CaF&lt;sub&gt;2&lt;/sub&gt;)&lt;/font&gt;&lt;/div&gt;&lt;div&gt;&lt;font size=&quot;3&quot;&gt;ELEGANT (NaI,&amp;nbsp;CaF&lt;sub&gt;2&lt;/sub&gt;)&lt;/font&gt;&lt;/div&gt;&lt;div&gt;&lt;font size=&quot;3&quot;&gt;&lt;br&gt;&lt;/font&gt;&lt;/div&gt;&lt;/td&gt;&lt;/tr&gt;&lt;/tbody&gt;&lt;/table&gt;&lt;font size=&quot;3&quot;&gt;&lt;br&gt;&lt;/font&gt;&lt;br&gt;&lt;/font&gt;&lt;/div&gt;" style="text;align=center;verticalAlign=middle;html=1;" parent="1" vertex="1">
          <mxGeometry x="425" y="600" width="260.5" height="70" as="geometry" />
        </mxCell>
        <mxCell id="toHoKdaznl8Og--s_fs9-1" value="" style="ellipse;fillColor=#dae8fc;opacity=60;strokeColor=#6c8ebf;html=1;rotation=0;" parent="1" vertex="1">
          <mxGeometry x="781.25" y="320" width="350" height="350" as="geometry" />
        </mxCell>
        <mxCell id="toHoKdaznl8Og--s_fs9-2" value="Track" style="text;strokeColor=none;align=center;fillColor=none;html=1;verticalAlign=middle;whiteSpace=wrap;rounded=0;fontSize=30;fontStyle=1" parent="1" vertex="1">
          <mxGeometry x="990" y="430" width="100" height="30" as="geometry" />
        </mxCell>
        <mxCell id="toHoKdaznl8Og--s_fs9-4" value="&lt;div style=&quot;&quot;&gt;&lt;font color=&quot;#000000&quot;&gt;&lt;span style=&quot;caret-color: rgb(0, 0, 0);&quot;&gt;(Paleo-detectors)&lt;/span&gt;&lt;/font&gt;&lt;/div&gt;&lt;div style=&quot;&quot;&gt;&lt;font color=&quot;#000000&quot;&gt;&lt;span style=&quot;caret-color: rgb(0, 0, 0);&quot;&gt;&lt;div style=&quot;caret-color: rgb(255, 255, 255); color: rgb(255, 255, 255);&quot;&gt;&lt;font size=&quot;3&quot;&gt;&lt;span style=&quot;caret-color: rgb(0, 0, 0); color: rgb(0, 0, 0); white-space: normal;&quot;&gt;JAMSTEC (M&lt;/span&gt;&lt;span style=&quot;caret-color: rgb(0, 0, 0); color: rgb(0, 0, 0); white-space: normal;&quot;&gt;uscovite&lt;/span&gt;&lt;span style=&quot;caret-color: rgb(0, 0, 0); color: rgb(0, 0, 0); white-space: normal;&quot;&gt;)&lt;/span&gt;&lt;/font&gt;&lt;/div&gt;&lt;div style=&quot;caret-color: rgb(255, 255, 255); color: rgb(255, 255, 255);&quot;&gt;&lt;font size=&quot;3&quot;&gt;&lt;span style=&quot;caret-color: rgb(0, 0, 0); color: rgb(0, 0, 0); white-space: normal;&quot;&gt;Toho U. (&lt;/span&gt;&lt;span style=&quot;white-space: normal; caret-color: rgb(0, 0, 0); color: rgb(0, 0, 0);&quot;&gt;M&lt;/span&gt;&lt;span style=&quot;white-space: normal; caret-color: rgb(0, 0, 0); color: rgb(0, 0, 0);&quot;&gt;uscovite&lt;/span&gt;&lt;span style=&quot;white-space: normal; caret-color: rgb(0, 0, 0); color: rgb(0, 0, 0);&quot;&gt;,O&lt;/span&gt;&lt;span style=&quot;white-space: normal; caret-color: rgb(0, 0, 0); color: rgb(0, 0, 0);&quot;&gt;livine&lt;/span&gt;&lt;span style=&quot;white-space: normal; caret-color: rgb(0, 0, 0); color: rgb(0, 0, 0);&quot;&gt;)&lt;/span&gt;&lt;/font&gt;&lt;/div&gt;&lt;/span&gt;&lt;/font&gt;&lt;/div&gt;&lt;div style=&quot;&quot;&gt;&lt;font color=&quot;#000000&quot;&gt;&lt;span style=&quot;caret-color: rgb(0, 0, 0);&quot;&gt;SLAC Team (&lt;/span&gt;&lt;/font&gt;&lt;span style=&quot;white-space: normal; caret-color: rgb(0, 0, 0); color: rgb(0, 0, 0);&quot;&gt;Silicon,&lt;/span&gt;&lt;span style=&quot;white-space: normal; caret-color: rgb(0, 0, 0); color: rgb(0, 0, 0);&quot;&gt;Muscovite&lt;/span&gt;&lt;span style=&quot;caret-color: rgb(0, 0, 0); color: rgb(0, 0, 0);&quot;&gt;)&lt;/span&gt;&lt;/div&gt;&lt;div style=&quot;&quot;&gt;&lt;font size=&quot;3&quot;&gt;&lt;span style=&quot;caret-color: rgb(0, 0, 0); color: rgb(0, 0, 0); white-space: normal;&quot;&gt;PALEOCCENE (&lt;/span&gt;&lt;span style=&quot;caret-color: rgb(0, 0, 0); color: rgb(0, 0, 0); white-space: normal;&quot;&gt;CaF&lt;/span&gt;&lt;span style=&quot;caret-color: rgb(0, 0, 0); color: rgb(0, 0, 0); white-space: normal; vertical-align: -2pt;&quot;&gt;2&lt;/span&gt; &lt;span style=&quot;color: rgb(0, 0, 0);&quot;&gt;cryst&lt;/span&gt;&lt;/font&gt;&lt;span style=&quot;color: rgb(0, 0, 0); font-size: medium;&quot;&gt;al)&lt;/span&gt;&lt;br&gt;&lt;/div&gt;&lt;div style=&quot;&quot;&gt;&lt;span style=&quot;white-space: normal; caret-color: rgb(0, 0, 0); color: rgb(0, 0, 0);&quot;&gt;Heidelberg&amp;amp;KIT&amp;nbsp;&lt;/span&gt;&lt;span style=&quot;white-space: normal; caret-color: rgb(0, 0, 0); color: rgb(0, 0, 0);&quot;&gt;(&lt;/span&gt;&lt;span style=&quot;white-space: normal; caret-color: rgb(0, 0, 0); color: rgb(0, 0, 0);&quot;&gt;Halite,S&lt;/span&gt;&lt;span style=&quot;white-space: normal; caret-color: rgb(0, 0, 0); color: rgb(0, 0, 0);&quot;&gt;ylvinite&lt;/span&gt;&lt;span style=&quot;white-space: normal; caret-color: rgb(0, 0, 0); color: rgb(0, 0, 0);&quot;&gt;)&lt;/span&gt;&lt;/div&gt;&lt;div&gt;&lt;font size=&quot;3&quot;&gt;&lt;span style=&quot;caret-color: rgb(0, 0, 0); color: rgb(0, 0, 0); white-space: normal;&quot;&gt;Queen’s U. (O&lt;/span&gt;&lt;span style=&quot;caret-color: rgb(0, 0, 0); color: rgb(0, 0, 0); white-space: normal;&quot;&gt;livine,G&lt;/span&gt;&lt;span style=&quot;caret-color: rgb(0, 0, 0); color: rgb(0, 0, 0); white-space: normal;&quot;&gt;alena&lt;/span&gt;&lt;span style=&quot;caret-color: rgb(0, 0, 0); color: rgb(0, 0, 0); white-space: normal;&quot;&gt;)&lt;/span&gt;&lt;/font&gt;&lt;/div&gt;&lt;div style=&quot;&quot;&gt;&lt;span style=&quot;white-space: normal; caret-color: rgb(0, 0, 0); color: rgb(0, 0, 0);&quot;&gt;&lt;span style=&quot;color: rgb(0, 0, 0);&quot;&gt;Maryland U. (&lt;/span&gt;&lt;span style=&quot;caret-color: rgb(0, 0, 0); color: rgb(0, 0, 0);&quot;&gt;Quartz&lt;/span&gt;&lt;span style=&quot;color: rgb(0, 0, 0);&quot;&gt;)&lt;/span&gt;&lt;br&gt;&lt;/span&gt;&lt;/div&gt;" style="text;align=center;html=1;fontColor=#FFFFFF;fontSize=16;flipH=1;labelPosition=center;verticalLabelPosition=middle;verticalAlign=middle;imageWidth=30;" parent="1" vertex="1">
          <mxGeometry x="780" y="480" width="390" height="170" as="geometry" />
        </mxCell>
        <mxCell id="hVAaGT4j61iO9HZ7TPpK-8" value="&lt;div style=&quot;caret-color: rgb(0, 0, 0); color: rgb(0, 0, 0);&quot;&gt;&lt;font style=&quot;font-size: 16px;&quot; face=&quot;Helvetica&quot;&gt;(Gas TPC)&lt;/font&gt;&lt;/div&gt;&lt;div style=&quot;caret-color: rgb(0, 0, 0); color: rgb(0, 0, 0);&quot;&gt;&lt;font face=&quot;Helvetica&quot; size=&quot;3&quot;&gt;CYGNUS (&lt;span style=&quot;text-align: start; white-space: normal;&quot;&gt;He+SF&lt;/span&gt;&lt;span style=&quot;text-align: start; white-space: normal; vertical-align: -1pt;&quot;&gt;6&lt;/span&gt;&lt;span style=&quot;text-align: start; white-space: normal;&quot;&gt;/CF&lt;/span&gt;&lt;span style=&quot;text-align: start; white-space: normal; vertical-align: -1pt;&quot;&gt;4&lt;/span&gt;)&lt;/font&gt;&lt;/div&gt;&lt;div style=&quot;caret-color: rgb(0, 0, 0); color: rgb(0, 0, 0);&quot;&gt;&lt;div style=&quot;caret-color: rgb(0, 0, 0); color: rgb(0, 0, 0);&quot;&gt;&lt;font face=&quot;Helvetica&quot; size=&quot;3&quot;&gt;MIMAC (CF&lt;sub&gt;4,&amp;nbsp;&lt;/sub&gt;CHF&lt;sub&gt;3&lt;/sub&gt;)&lt;/font&gt;&lt;/div&gt;&lt;div style=&quot;caret-color: rgb(0, 0, 0); color: rgb(0, 0, 0);&quot;&gt;DRIFT (CS&lt;sub&gt;2&lt;/sub&gt;+CF&lt;sub&gt;4&lt;/sub&gt;)&lt;font face=&quot;Helvetica&quot; size=&quot;3&quot;&gt;&lt;br&gt;&lt;/font&gt;&lt;/div&gt;&lt;/div&gt;" style="text;align=center;html=1;fontColor=#FFFFFF;fontSize=16;" parent="1" vertex="1">
          <mxGeometry x="880" y="360" width="40" height="40" as="geometry" />
        </mxCell>
      </root>
    </mxGraphModel>
  </diagram>
</mxfile>
